<svg width="351" height="352" viewBox="0 0 351 352" fill="none" xmlns="http://www.w3.org/2000/svg">
<path fill-rule="evenodd" clip-rule="evenodd" d="M161.214 0.137176C161.035 0.292176 158.189 0.682175 154.889 1.00317C149.649 1.51417 145.412 2.22818 136.704 4.07018C133.391 4.77118 122.09 7.79418 120.389 8.43418C119.564 8.74518 118.664 9.07618 118.389 9.16918C118.114 9.26318 116.539 9.87717 114.889 10.5342C113.239 11.1912 109.414 12.7122 106.389 13.9152C103.364 15.1182 98.8645 17.1992 96.3895 18.5412C93.9145 19.8822 90.5395 21.6642 88.8895 22.5002C75.1565 29.4592 47.4765 53.4412 37.3285 67.1722C34.8895 70.4722 32.6675 73.3972 32.3895 73.6722C28.5475 77.4732 15.4775 102.342 11.1045 114.172C-4.49952 156.384 -3.62652 203.049 13.5215 243.419C17.9435 253.826 24.9755 267.298 26.4705 268.222C26.9685 268.53 49.7275 253.119 77.0465 233.977C104.365 214.834 127.147 198.887 127.673 198.539C128.246 198.159 127.709 195.15 126.335 191.039C120.658 174.052 125.242 153.651 137.704 140.437C142.999 134.823 155.081 126.913 156.753 127.965C156.934 128.079 157.826 127.554 158.735 126.8C159.645 126.045 160.389 125.696 160.389 126.025C160.389 126.354 161.627 126.118 163.139 125.501C167.89 123.563 181.157 123.735 188.729 125.834C195.062 127.588 203.201 131.085 204.389 132.562C205.19 133.557 212.205 138.672 212.769 138.672C214.239 138.672 313.389 68.3412 313.389 67.2982C313.389 66.1852 306.675 58.2662 298.889 50.1962C293.523 44.6352 281.799 35.1552 273.351 29.5462C256.919 18.6352 238.589 10.1822 222.389 6.04318C219.364 5.27018 216.102 4.42118 215.139 4.15518C212.092 3.31418 210.024 2.91318 204.889 2.16918C202.139 1.77118 198.764 1.23118 197.389 0.969176C194.627 0.444176 161.733 -0.312824 161.214 0.137176ZM273.861 115.833C246.376 135.062 223.503 151.174 223.032 151.64C222.558 152.108 223.151 155.094 224.361 158.328C230.309 174.225 226.718 194.891 215.665 208.381C212.286 212.503 199.217 222.672 197.297 222.672C196.869 222.672 195.252 223.191 193.704 223.826C192.156 224.46 190.439 225.094 189.889 225.234C180.363 227.658 171.469 227.696 161.799 225.355C157.344 224.276 146.334 218.248 142.225 214.638L137.913 210.851L133.401 214.119C130.919 215.916 108.414 231.683 83.3895 249.157C58.3645 266.631 37.4825 281.299 36.9855 281.754C34.1095 284.383 62.3475 311.749 79.4325 322.89C91.2785 330.614 117.706 342.466 129.221 345.217C130.138 345.436 132.689 346.054 134.889 346.589C141.074 348.094 146.405 348.988 157.389 350.363C169.498 351.878 194.162 351.024 205.889 348.683C208.639 348.134 212.014 347.491 213.389 347.253C214.764 347.015 215.889 346.754 215.889 346.672C215.889 346.59 216.9 346.335 218.136 346.104C219.372 345.874 225.681 343.914 232.156 341.75C270.347 328.983 304.747 301.092 326.203 265.498C332.424 255.177 340.531 236.664 343.861 225.173C352.915 193.928 353.265 155.055 344.733 128.378C343.889 125.742 343.105 122.942 342.99 122.157C342.874 121.372 342.467 120.417 342.085 120.034C341.702 119.652 341.386 118.626 341.383 117.755C341.379 116.884 340.704 114.883 339.883 113.308C339.061 111.732 338.389 109.932 338.389 109.307C338.389 108.119 329.072 89.4812 325.75 84.0232L323.833 80.8732L273.861 115.833ZM166.87 140.525C166.514 140.881 165.922 141.18 165.556 141.19C165.189 141.2 162.83 142.214 160.313 143.445C153.401 146.824 148.09 151.877 144.652 158.346C131.278 183.51 149.613 212.813 177.659 211.099C186.264 210.573 190.477 208.873 198.029 202.879C212.636 191.286 215.475 168.772 204.152 154.332C199.686 148.635 197.833 147.118 190.889 143.466C185.656 140.714 183.779 140.283 176.203 140.094C171.426 139.975 167.226 140.168 166.87 140.525Z" fill="#6f38f6"/>
</svg>
